<svg width="22" height="22" viewBox="0 0 22 22" fill="none" xmlns="http://www.w3.org/2000/svg">
<g clip-path="url(#clip0_178_81)">
<path d="M7.70103 20.6603V17.2868C7.70103 16.4319 8.43095 15.7374 9.335 15.732H12.6546C13.5628 15.732 14.299 16.4282 14.299 17.2868V20.6506C14.2989 21.392 14.9317 21.9946 15.7158 22H17.9806C19.0384 22.0025 20.0537 21.6071 20.8026 20.9008C21.5516 20.1945 21.9726 19.2355 21.9726 18.2353V8.6524C21.9726 7.84456 21.5937 7.07824 20.9384 6.55984L13.2442 0.741751C11.8992 -0.27597 9.97823 -0.24309 8.67312 0.819871L1.14436 6.55984C0.458034 7.06288 0.0477785 7.83148 0.0274925 8.6524V18.2255C0.0274925 20.3101 1.81468 22 4.0193 22H6.23249C6.60999 22.0027 6.973 21.8626 7.241 21.6111C7.509 21.3596 7.6597 21.0173 7.65957 20.6603H7.70103Z" fill="current"/>
</g>
<defs>
<clipPath id="clip0_178_81">
<rect width="22" height="22" fill="white"/>
</clipPath>
</defs>
</svg>
