<svg width="16" height="17" viewBox="0 0 16 17" fill="none" xmlns="http://www.w3.org/2000/svg">
<path d="M14.5 12.7594C14.5 12.7461 14.4933 12.7328 14.4933 12.7194C14.4867 12.6661 14.48 12.6128 14.46 12.5661C14.4333 12.5061 14.4 12.4594 14.36 12.4128C14.36 12.4128 14.36 12.4061 14.3533 12.4061C14.3067 12.3594 14.2533 12.3261 14.1933 12.2994C14.1333 12.2728 14.0667 12.2594 14 12.2594L10.8867 12.2728C10.8867 12.2728 10.8867 12.2728 10.88 12.2728C10.48 12.2728 10.0933 12.0861 9.85333 11.7661L9.04 10.7194C8.87333 10.4994 8.56 10.4594 8.34 10.6328C8.12 10.8061 8.08 11.1128 8.25333 11.3328L9.06666 12.3794C9.5 12.9394 10.18 13.2728 10.8867 13.2728H10.8933L12.7933 13.2661L12.32 13.7394C12.1267 13.9328 12.1267 14.2528 12.32 14.4461C12.42 14.5461 12.5467 14.5928 12.6733 14.5928C12.8 14.5928 12.9267 14.5461 13.0267 14.4461L14.36 13.1128C14.4067 13.0661 14.44 13.0128 14.4667 12.9528C14.4867 12.8861 14.5 12.8194 14.5 12.7594Z" fill="white"/>
<path d="M5.61333 5.23275C5.18 4.63275 4.48667 4.27942 3.74667 4.27942C3.74 4.27942 3.74 4.27942 3.73333 4.27942L2 4.28609C1.72667 4.28609 1.5 4.51275 1.5 4.78609C1.5 5.05942 1.72667 5.28609 2 5.28609L3.74 5.27942H3.74667C4.16667 5.27942 4.56 5.47942 4.8 5.81942L5.52 6.81942C5.62 6.95275 5.77333 7.02609 5.92667 7.02609C6.02667 7.02609 6.13333 6.99275 6.22 6.93275C6.44667 6.76609 6.49333 6.45275 6.33333 6.23275L5.61333 5.23275Z" fill="white"/>
<path d="M14.4933 4.82606C14.4933 4.81273 14.5 4.79939 14.5 4.79273C14.5 4.72606 14.4867 4.65939 14.46 4.59939C14.4333 4.53939 14.4 4.48606 14.3533 4.43939L13.02 3.10606C12.8267 2.91273 12.5067 2.91273 12.3133 3.10606C12.12 3.29939 12.12 3.61939 12.3133 3.81273L12.7867 4.28606L10.9667 4.27939C10.96 4.27939 10.96 4.27939 10.9533 4.27939C10.1867 4.27939 9.46667 4.65939 9.04 5.30606L4.78 11.6927C4.54 12.0527 4.13333 12.2727 3.7 12.2727H3.69333L2 12.2594C1.72667 12.2594 1.5 12.4794 1.5 12.7594C1.5 13.0327 1.72 13.2594 2 13.2594L3.7 13.2661C3.70667 13.2661 3.70667 13.2661 3.71333 13.2661C4.48667 13.2661 5.2 12.8861 5.62667 12.2394L9.88667 5.85273C10.1267 5.49273 10.5333 5.27273 10.9667 5.27273H10.9733L14 5.28606C14.0667 5.28606 14.1267 5.27273 14.1933 5.24606C14.2533 5.21939 14.3067 5.18606 14.3533 5.13939C14.3533 5.13939 14.3533 5.13273 14.36 5.13273C14.4 5.08606 14.44 5.03939 14.46 4.97939C14.48 4.93273 14.4867 4.87939 14.4933 4.82606Z" fill="white"/>
</svg>
