<svg width="22" height="22" viewBox="0 0 22 22" fill="none" xmlns="http://www.w3.org/2000/svg">
<path d="M10.3125 7.20502H1.83331V14.8408C1.83331 14.8959 1.83331 14.9509 1.84248 14.9967H10.3125V7.20502Z" fill="#EFEEE0" fill-opacity="0.25"/>
<path d="M7.04919 5.82998H10.3125V1.83331H7.07669V5.71998C7.07669 5.75665 7.05836 5.79331 7.04919 5.82998Z" fill="#EFEEE0" fill-opacity="0.25"/>
<path d="M5.70168 5.71998V1.97998C3.66668 2.40165 2.33751 3.75831 1.95251 5.82998H5.72001C5.71085 5.79331 5.70168 5.75665 5.70168 5.71998Z" fill="#EFEEE0" fill-opacity="0.25"/>
<path d="M14.8683 1.83331H11.6875V5.82998H14.8683V1.83331Z" fill="#EFEEE0" fill-opacity="0.25"/>
<path d="M16.2342 5.82999H20.0475C19.6625 3.73999 18.315 2.37416 16.2434 1.97083V5.80249C16.2434 5.81166 16.2342 5.82083 16.2342 5.82999Z" fill="#EFEEE0" fill-opacity="0.25"/>
<path d="M16.2433 20.0291C18.2508 19.635 19.5708 18.3516 20.0017 16.3716H16.2433V20.0291Z" fill="#EFEEE0" fill-opacity="0.25"/>
<path d="M14.8683 16.3716H11.6875V20.1666H14.8683V16.3716Z" fill="#EFEEE0" fill-opacity="0.25"/>
<path d="M11.6875 14.9967H20.1575C20.1667 14.9509 20.1667 14.8959 20.1667 14.8408V7.20502H11.6875V14.9967Z" fill="#EFEEE0" fill-opacity="0.25"/>
<path d="M10.3125 16.3716H7.07666V20.1666H10.3125V16.3716Z" fill="#EFEEE0" fill-opacity="0.25"/>
<path d="M1.99835 16.3716C2.42919 18.3333 3.73085 19.6166 5.70169 20.02V16.3716H1.99835Z" fill="#EFEEE0" fill-opacity="0.25"/>
</svg>
